<?xml version="1.0" standalone="no"?>
<!DOCTYPE svg PUBLIC "-//W3C//DTD SVG 20010904//EN"
 "http://www.w3.org/TR/2001/REC-SVG-20010904/DTD/svg10.dtd">
<svg version="1.0" xmlns="http://www.w3.org/2000/svg"
 width="3840.000000pt" height="2160.000000pt" viewBox="0 0 3840.000000 2160.000000"
 preserveAspectRatio="xMidYMid meet">

<g transform="translate(0.000000,2160.000000) scale(0.100000,-0.100000)"
fill="#000000" stroke="none">
<path d="M4255 16306 c-55 -7 -110 -18 -122 -24 -30 -16 -158 -121 -213 -174
-59 -56 -220 -234 -220 -242 0 -3 -31 -48 -68 -98 -38 -51 -86 -120 -107 -153
-22 -33 -47 -69 -56 -80 -23 -27 -159 -271 -159 -285 0 -6 -22 -57 -49 -113
-121 -249 -296 -730 -322 -887 -6 -36 -24 -128 -40 -205 -63 -315 -73 -442
-74 -880 0 -450 8 -530 71 -726 19 -58 34 -112 34 -119 0 -57 238 -508 337
-638 18 -23 39 -57 48 -75 36 -76 202 -233 310 -292 28 -15 59 -36 70 -45 32
-29 206 -115 323 -160 144 -56 243 -78 399 -89 149 -11 187 -24 209 -76 37
-90 -7 -310 -132 -660 -76 -211 -179 -395 -324 -579 -156 -197 -201 -240 -366
-356 -44 -30 -91 -64 -107 -77 -44 -35 -262 -138 -377 -176 -224 -75 -267 -81
-635 -80 -297 0 -339 2 -425 21 -130 28 -268 76 -370 127 -98 50 -122 68 -242
184 -100 96 -150 182 -213 361 -35 102 -36 109 -36 250 0 159 6 189 66 315 48
100 120 204 224 325 50 58 91 108 91 112 0 6 47 79 143 223 21 30 63 142 81
210 37 145 47 348 20 415 -19 47 -47 69 -126 98 -192 71 -387 39 -593 -96
-191 -126 -339 -308 -442 -544 -75 -173 -106 -370 -107 -673 0 -264 30 -457
108 -690 24 -71 57 -157 74 -190 149 -294 183 -340 412 -546 186 -167 416
-285 740 -377 241 -69 419 -92 753 -99 488 -10 880 38 1247 154 247 77 424
176 640 357 94 78 277 265 359 366 29 36 65 80 79 97 29 35 80 125 171 303 58
113 115 262 166 430 32 106 93 398 100 482 3 35 15 140 25 233 25 217 37 373
50 660 46 1029 51 3184 10 3939 -23 410 -63 680 -108 728 -34 36 -56 43 -267
73 -296 43 -873 65 -1060 41z m244 -963 c69 -22 120 -67 131 -118 33 -143 42
-1025 21 -1980 -25 -1131 -45 -1371 -118 -1437 -27 -25 -99 -48 -147 -48 -57
0 -149 25 -210 58 -47 24 -201 169 -270 252 -111 134 -234 405 -270 599 -31
164 -38 358 -33 902 6 631 11 687 92 1069 32 151 195 428 315 536 24 21 57 52
74 67 17 15 58 41 91 57 119 59 231 74 324 43z"/>
<path d="M13463 16170 c-54 -11 -100 -35 -113 -60 -24 -44 -41 -229 -50 -535
-5 -176 -12 -342 -15 -370 -3 -27 -10 -140 -15 -250 -6 -110 -21 -308 -33
-440 l-22 -240 -290 -6 c-291 -6 -368 -14 -617 -60 -123 -23 -302 -73 -335
-95 -32 -20 -30 -65 8 -144 69 -146 155 -193 534 -289 82 -21 182 -43 220 -50
39 -6 108 -19 155 -28 47 -9 126 -23 175 -33 l90 -16 -5 -944 c-8 -1566 -6
-2250 8 -2390 25 -245 55 -388 138 -657 49 -161 205 -448 304 -562 27 -32 50
-62 50 -68 0 -33 279 -266 346 -289 10 -4 46 -19 79 -35 92 -42 169 -60 292
-66 141 -7 212 6 323 59 123 60 237 163 433 392 31 37 57 72 57 77 0 6 17 36
38 67 64 94 175 289 241 421 34 68 71 136 81 152 11 15 20 31 20 36 0 10 32
43 42 43 3 0 8 -27 11 -59 4 -33 20 -103 38 -158 33 -107 188 -428 243 -508
20 -27 42 -64 50 -81 42 -88 160 -215 236 -254 73 -37 207 -90 228 -90 9 0 89
-19 177 -41 138 -35 180 -41 304 -46 190 -8 244 2 460 82 64 23 121 66 219
163 137 137 232 273 345 494 54 106 128 262 163 347 81 194 79 189 91 165 5
-10 24 -71 42 -134 35 -121 74 -218 100 -248 9 -9 42 -52 74 -93 77 -103 270
-287 337 -323 124 -67 173 -88 242 -102 133 -29 308 0 457 75 44 23 86 41 92
41 29 0 259 188 259 212 0 10 100 148 136 188 13 14 31 36 42 49 l19 24 35
-64 c31 -57 135 -260 177 -347 9 -18 25 -43 36 -56 11 -13 45 -54 74 -90 94
-113 244 -223 368 -269 176 -65 567 -140 733 -141 93 0 111 2 160 26 126 60
253 185 392 387 29 42 58 82 65 89 6 7 27 43 44 80 33 67 156 288 171 307 5 6
15 19 23 30 13 17 14 -33 15 -400 l0 -421 -386 -389 c-361 -364 -529 -548
-567 -620 -9 -16 -49 -71 -89 -122 -65 -82 -298 -440 -298 -458 0 -4 -47 -103
-104 -219 -58 -116 -125 -265 -151 -331 -25 -66 -52 -133 -60 -150 -18 -42
-65 -193 -65 -211 0 -9 -18 -82 -40 -162 -44 -159 -92 -400 -112 -552 -17
-141 -15 -426 5 -536 49 -271 164 -488 331 -622 121 -98 266 -180 354 -201 20
-5 88 -23 150 -40 211 -58 388 -78 774 -87 421 -9 524 8 643 105 59 49 151
153 190 216 162 262 197 346 250 608 71 352 118 1361 131 2817 2 316 7 607 10
647 l6 71 181 4 c164 4 189 7 255 30 87 31 133 64 156 112 16 33 16 38 1 69
-28 56 -187 172 -295 215 -83 33 -135 41 -247 42 l-103 0 0 63 c0 34 9 325 19
647 11 322 20 657 20 745 3 361 44 797 91 973 11 40 56 145 101 234 83 166 85
177 35 178 -23 0 -147 49 -311 122 l-120 54 -6 580 c-4 326 -11 596 -16 619
-26 106 -38 130 -107 222 -84 112 -129 156 -229 221 -124 81 -218 123 -407
182 -74 23 -155 50 -180 60 -25 11 -94 38 -155 61 -60 23 -166 68 -235 99 -69
32 -143 63 -165 69 -78 20 -206 41 -254 41 -68 0 -219 -33 -271 -60 -73 -37
-229 -158 -334 -260 -118 -114 -228 -274 -335 -485 -86 -171 -131 -303 -204
-590 -120 -470 -187 -955 -237 -1710 -31 -472 -75 -836 -126 -1044 -38 -158
-140 -319 -240 -377 -131 -77 -252 -66 -345 33 -156 164 -222 480 -223 1058 0
280 11 457 40 635 9 52 18 111 21 130 2 19 16 87 30 150 14 63 26 142 27 175
1 83 -38 149 -139 234 -164 138 -188 213 -220 691 -19 286 -29 378 -61 540
-35 178 -80 267 -195 383 -48 48 -93 87 -101 87 -7 0 -37 16 -66 35 -56 39
-221 123 -299 154 -26 10 -78 32 -114 49 -74 34 -308 114 -384 130 -306 68
-628 63 -835 -14 -148 -55 -260 -136 -397 -290 -184 -206 -263 -356 -403 -769
-59 -173 -129 -456 -169 -680 -31 -174 -108 -686 -117 -785 -9 -85 -53 -248
-87 -315 -54 -109 -104 -257 -156 -465 -29 -113 -70 -268 -93 -345 -22 -77
-44 -156 -49 -176 -24 -102 -137 -347 -227 -489 -64 -102 -192 -249 -217 -250
-6 0 -34 -16 -64 -36 -128 -86 -162 -84 -266 21 -54 54 -83 93 -110 149 -66
139 -114 373 -146 716 -17 188 -23 1063 -10 1548 35 1344 51 1555 130 1709 21
42 68 88 98 96 162 45 558 81 1061 97 313 10 416 20 481 46 88 35 74 124 -37
224 -87 79 -142 106 -276 140 -141 36 -319 54 -881 88 l-430 27 3 200 c6 384
35 905 62 1115 34 260 31 331 -16 382 -70 74 -416 196 -662 233 -106 16 -146
17 -209 5z m8367 -2940 c19 -6 75 -44 124 -85 158 -131 226 -228 246 -352 13
-77 13 -538 0 -760 -15 -256 -55 -640 -90 -875 -17 -112 -33 -225 -36 -253
-17 -168 -121 -596 -195 -806 -62 -175 -97 -252 -149 -335 -22 -35 -40 -69
-40 -76 0 -25 -151 -207 -227 -275 -222 -196 -327 -231 -463 -157 -68 37 -160
138 -191 211 -27 64 -67 268 -84 431 -65 632 -33 1598 71 2099 8 42 38 142 66
222 27 80 54 162 59 183 18 74 182 399 222 440 7 7 30 36 50 63 21 28 70 83
109 123 63 64 87 81 193 133 66 32 138 63 160 68 54 12 133 13 175 1z m-4289
-110 c125 -23 286 -136 324 -227 9 -21 20 -40 26 -43 16 -11 79 -176 105 -276
33 -133 47 -263 40 -369 -7 -101 -23 -161 -66 -249 -72 -151 -99 -294 -190
-1031 -77 -617 -164 -1019 -276 -1274 -13 -29 -24 -60 -24 -69 0 -27 -67 -139
-129 -216 -66 -81 -141 -151 -211 -199 -25 -17 -47 -34 -50 -38 -3 -4 -28 -18
-55 -30 -39 -18 -69 -23 -135 -23 -115 -1 -158 20 -229 114 -113 149 -179 362
-228 740 -24 188 -29 814 -8 1090 39 528 113 943 240 1342 93 293 178 425 390
610 78 69 182 120 289 143 76 17 118 18 187 5z m4694 -5890 c9 -753 -5 -1228
-46 -1520 -14 -105 -65 -353 -90 -436 -11 -38 -22 -85 -25 -104 -15 -89 -112
-303 -190 -416 -61 -89 -183 -208 -242 -238 -118 -59 -258 -61 -362 -5 -116
62 -223 214 -270 383 -93 332 -54 851 99 1336 54 171 173 483 192 505 5 5 9
17 9 27 0 22 129 302 174 378 18 30 55 96 81 145 142 263 280 464 419 610 47
50 86 94 86 98 0 5 33 45 73 89 l72 81 6 -144 c4 -79 10 -434 14 -789z"/>
<path d="M28080 14040 c-89 -14 -180 -48 -224 -82 -35 -27 -120 -115 -321
-331 -41 -45 -90 -115 -120 -172 -12 -22 -51 -94 -87 -161 -128 -234 -231
-525 -279 -793 -54 -295 -81 -464 -104 -641 -57 -438 -123 -791 -239 -1275
-24 -99 -48 -207 -55 -240 -12 -69 -144 -500 -170 -560 -10 -22 -37 -88 -60
-146 -23 -58 -59 -134 -81 -170 -21 -35 -48 -83 -60 -105 -27 -54 -99 -128
-147 -152 -55 -28 -123 -36 -183 -22 -100 24 -187 144 -230 317 -70 278 -78
930 -20 1613 42 497 105 786 313 1433 l25 78 -61 51 c-34 28 -72 62 -84 75
-27 28 -134 81 -183 89 -19 3 -78 16 -130 29 -52 13 -124 28 -160 34 -51 8
-752 81 -782 81 -3 0 -20 12 -37 26 -45 38 -61 103 -71 294 -5 91 -14 196 -20
233 -15 82 -58 151 -115 185 -37 21 -48 23 -150 18 -270 -11 -430 -84 -469
-215 -35 -121 -39 -209 -30 -721 13 -707 11 -1455 -4 -1630 -16 -182 -31 -294
-81 -596 -73 -443 -74 -571 -2 -609 104 -53 178 -13 271 150 45 79 140 375
189 590 66 287 89 419 175 970 73 468 66 422 81 575 3 30 8 64 11 77 l6 23
214 0 214 0 -5 -52 c-2 -29 -7 -145 -10 -258 -3 -113 -10 -365 -16 -562 -22
-734 25 -1322 141 -1785 48 -189 83 -289 175 -493 53 -118 62 -133 156 -246
192 -231 416 -335 698 -322 136 7 239 39 347 110 117 76 340 308 355 368 2 8
21 47 42 85 22 39 83 152 137 253 l98 184 27 -74 c15 -40 40 -104 56 -143 16
-38 29 -78 29 -89 0 -32 108 -227 177 -321 37 -50 103 -125 146 -168 65 -63
100 -87 188 -132 60 -30 128 -59 152 -66 23 -6 76 -22 117 -35 146 -46 370
-84 499 -84 134 0 198 18 336 95 84 47 239 199 307 301 26 38 60 84 75 101 65
72 269 443 292 529 15 58 94 236 106 237 5 1 48 -81 95 -184 47 -102 106 -217
131 -256 26 -39 52 -81 59 -94 24 -45 102 -130 169 -183 78 -62 230 -139 321
-163 97 -26 273 -23 372 5 89 25 247 99 298 139 63 50 201 187 239 238 95 126
131 178 131 186 0 5 29 53 65 107 36 53 65 89 65 80 0 -60 65 -515 84 -592 40
-158 118 -281 206 -326 171 -87 671 -145 779 -91 121 62 177 219 245 686 59
402 77 537 82 610 18 249 173 1014 260 1281 42 128 101 231 121 211 25 -26 58
-509 78 -1177 20 -640 28 -761 67 -924 27 -115 77 -192 172 -263 67 -50 109
-67 276 -114 59 -17 292 -17 350 -1 207 59 260 115 274 289 11 137 66 385 159
723 179 644 278 936 491 1449 31 73 56 139 56 146 0 18 42 126 47 122 2 -2 14
-305 28 -673 46 -1256 60 -1357 236 -1686 38 -71 69 -134 69 -139 0 -14 91
-146 141 -204 143 -166 249 -238 415 -282 86 -23 120 -26 259 -27 197 -1 278
15 422 85 86 41 115 62 186 132 103 101 175 198 285 381 89 147 202 368 202
394 0 8 19 55 41 106 64 142 175 486 209 651 36 173 49 358 31 446 -15 70 -58
126 -106 135 -134 25 -219 -104 -300 -461 -88 -387 -118 -484 -215 -695 -143
-311 -336 -500 -511 -500 -119 0 -224 84 -277 223 -67 177 -112 613 -112 1077
0 499 41 880 137 1280 104 435 122 584 82 666 -40 83 -203 207 -391 298 -169
83 -272 110 -494 130 -93 9 -191 18 -217 21 l-48 6 -38 -83 c-67 -146 -81
-177 -81 -183 0 -4 -38 -93 -85 -199 -102 -233 -305 -739 -305 -761 0 -9 -20
-67 -44 -128 -24 -62 -63 -164 -86 -227 -23 -63 -48 -128 -56 -145 -19 -43
-151 -407 -176 -485 -54 -174 -191 -557 -203 -568 -3 -3 -5 39 -5 94 0 54 -9
515 -20 1024 -11 509 -20 958 -20 998 0 51 -4 72 -12 72 -7 0 -60 27 -117 60
-210 120 -392 173 -523 152 -80 -12 -196 -65 -243 -110 -73 -70 -126 -132
-167 -197 -59 -91 -178 -331 -210 -420 -43 -121 -138 -408 -174 -526 -59 -192
-150 -487 -193 -624 -22 -71 -41 -141 -41 -154 0 -34 -13 -17 -17 22 -1 18 -7
401 -12 852 -15 1231 -31 1649 -72 1807 -9 34 -14 39 -62 53 -29 9 -101 24
-162 35 -112 20 -636 83 -641 77 -2 -2 -10 -309 -19 -683 -33 -1500 -53 -1868
-120 -2185 -13 -63 -29 -141 -36 -174 -37 -185 -176 -530 -280 -695 -120 -190
-173 -253 -251 -295 -62 -35 -143 -39 -194 -12 -70 37 -167 201 -204 344 -48
188 -75 584 -66 958 9 374 28 545 87 775 55 213 41 265 -101 385 -44 38 -94
90 -111 117 -55 85 -86 246 -124 633 -47 477 -119 722 -260 885 -48 56 -67 68
-172 117 -65 30 -170 80 -233 110 -140 67 -450 197 -505 212 -158 42 -263 54
-490 57 -126 1 -255 -1 -285 -6z m805 -935 c82 -19 177 -69 219 -115 124 -137
221 -437 233 -717 8 -185 -2 -229 -85 -379 -34 -62 -95 -395 -127 -699 -53
-501 -122 -937 -196 -1229 -51 -205 -164 -468 -243 -571 -96 -123 -123 -154
-165 -188 -193 -158 -378 -168 -525 -28 -46 44 -68 77 -106 156 -53 111 -69
170 -105 390 -81 503 -83 1116 -4 1723 11 86 22 184 25 217 15 159 102 521
169 699 65 172 212 423 299 511 118 119 269 213 379 234 67 14 167 12 232 -4z"/>
<path d="M6612 13521 c-19 -5 -38 -13 -44 -19 -39 -39 -105 -1117 -168 -2737
-19 -483 -24 -1140 -11 -1250 25 -191 87 -356 166 -438 68 -71 196 -122 349
-138 110 -12 317 0 441 26 119 25 136 57 219 400 20 83 47 204 60 270 53 259
148 629 257 995 70 238 82 276 94 305 8 17 34 80 59 142 97 241 167 346 191
286 13 -36 25 -244 25 -468 1 -303 16 -796 29 -915 5 -52 12 -125 15 -161 3
-36 17 -109 30 -161 25 -99 82 -248 95 -248 4 0 12 -10 18 -23 19 -41 115
-138 187 -188 81 -57 161 -85 289 -99 219 -25 513 48 692 172 28 19 83 58 124
86 72 50 118 64 147 44 5 -4 35 -39 66 -78 64 -81 122 -134 188 -172 25 -14
52 -31 60 -38 21 -17 209 -94 230 -94 10 0 62 -13 116 -29 301 -89 726 -130
1043 -102 196 18 462 73 558 117 17 8 40 14 50 14 25 0 190 80 251 122 109 74
230 220 268 325 25 68 25 248 0 323 -27 79 -69 157 -116 215 -22 28 -56 71
-75 96 -20 26 -51 59 -71 74 -35 27 -180 154 -310 272 -39 35 -89 76 -110 91
-53 36 -240 187 -289 233 -48 45 -177 151 -239 197 -49 36 -247 235 -341 342
-61 69 -125 191 -146 280 -9 33 -14 107 -13 185 0 117 3 137 28 205 35 91 96
179 177 254 243 225 564 246 802 52 161 -131 253 -138 397 -29 72 54 201 208
251 300 50 90 63 155 62 298 -3 221 -42 342 -131 401 -153 102 -214 118 -442
118 -91 0 -205 -6 -255 -13 -131 -18 -377 -69 -475 -98 -47 -14 -105 -29 -130
-34 -157 -28 -554 -199 -765 -329 -44 -27 -84 -49 -88 -50 -10 0 -103 -72
-159 -122 -54 -49 -190 -233 -231 -315 -43 -84 -85 -216 -103 -323 -38 -233 7
-474 137 -731 102 -201 104 -240 15 -302 -14 -9 -41 -50 -60 -90 -33 -71 -50
-132 -102 -377 -14 -69 -43 -179 -65 -244 -21 -65 -39 -123 -39 -128 0 -18
-73 -165 -123 -248 -88 -147 -232 -269 -328 -278 -26 -2 -63 1 -82 7 -49 17
-122 83 -140 130 -22 54 -44 184 -56 331 -15 174 -31 787 -31 1205 -1 392 -12
618 -40 811 -31 217 -71 305 -191 419 -124 119 -288 162 -438 116 -83 -25
-119 -54 -222 -178 -107 -127 -180 -248 -308 -508 -185 -375 -213 -440 -392
-915 -34 -91 -66 -169 -70 -174 -5 -6 -9 289 -10 675 0 793 -12 1412 -29 1520
-21 132 -76 202 -215 273 -159 80 -437 141 -533 117z m3908 -2705 c160 -140
309 -266 316 -266 8 0 118 -93 149 -127 37 -39 284 -253 293 -253 5 0 27 -19
49 -42 22 -24 80 -81 128 -127 121 -118 240 -252 264 -299 20 -38 27 -115 23
-222 -3 -49 -96 -139 -177 -169 -166 -62 -377 -42 -582 55 -51 24 -96 44 -100
44 -4 0 -73 48 -153 105 -202 145 -395 275 -410 275 -7 0 -34 16 -61 36 -72
52 -104 133 -79 199 5 14 14 49 19 78 5 29 27 132 49 229 22 97 59 274 82 392
l43 216 36 -29 c20 -16 70 -59 111 -95z"/>
</g>
</svg>
